<svg width="446" height="416" viewBox="0 0 446 416" fill="none" xmlns="http://www.w3.org/2000/svg">
<path d="M124 336.979C115 318.979 88.6667 245.146 79 205.979L67.5 153.979L123.5 62.9794L210 21.4794L227.5 23.9794L275 62.9794L299 166.479L353 151.479C355.8 145.479 356.5 190.146 360.5 189.979C368.9 192.379 347.5 213.146 344 218.979C342.5 225.146 337.7 242.879 330.5 264.479C323.3 286.079 292.833 341.146 278.5 365.979C236.5 420.379 198 419.479 180 410.979C161.5 397.979 133.306 355.591 124 336.979Z" fill="#7C685B"/>
<path fill-rule="evenodd" clip-rule="evenodd" d="M211.006 27.5332C207.665 30.4579 203.527 34.0805 198.5 39.4794C185 53.9794 187.583 75.0845 190.083 91.5845C191.489 100.868 195.745 100.18 200.535 99.4051C204.257 98.8028 208.303 98.1484 211.583 102.085C207.916 108.585 202.383 122.785 209.583 127.585C217.916 126.585 234.883 125.685 236.083 130.085C233.916 140.751 231.483 162.585 239.083 164.585C236.583 162.751 233.083 153.685 239.083 132.085C240.749 128.251 237.183 120.985 209.583 122.585C209.083 119.418 209.883 110.285 217.083 99.0845C215.416 98.0845 211.083 95.8845 207.083 95.0845C211.416 94.4179 221.983 93.9845 229.583 97.5845C224.083 100.585 215.683 108.185 226.083 114.585C226.583 117.251 230.483 123.085 242.083 125.085C245.996 125.759 248.744 125.961 250.798 126.111C256.356 126.518 256.837 126.553 261.583 134.585C259.749 141.251 257.183 155.585 261.583 159.585C263.047 160.916 263.944 162.849 264.906 164.922C267.559 170.638 270.705 177.419 287.583 175.585C278.416 175.251 261.383 168.385 266.583 143.585C268.36 135.418 265.348 118.885 239.083 118.085C234.749 116.751 226.783 112.585 229.583 106.585C229.416 104.585 230.083 100.285 234.083 99.0845C234.249 105.585 237.583 117.185 249.583 111.585C253.916 109.918 263.783 110.285 268.583 125.085C271.024 132.613 270.803 135.836 270.624 138.426C270.365 142.2 270.197 144.631 278.5 157.085C281.341 161.347 286.901 165.833 291.064 169.192C292.657 170.479 294.046 171.599 295 172.479C299.181 176.338 298.953 180.728 298.724 185.126C298.604 187.433 298.484 189.743 299 191.979C299.658 194.831 301.058 195.125 302.687 195.468C304.773 195.907 307.234 196.425 309 202.479C309.369 203.746 309.647 204.85 309.846 205.826C309.835 205.837 309.825 205.847 309.815 205.858C307.16 208.595 304.326 211.517 303 215.874C299.5 230.374 302.348 244.883 305.5 250.874C311.286 261.874 314.5 274.374 311 278.374C304.21 286.135 304.276 287.204 304.441 289.841C304.469 290.293 304.5 290.79 304.5 291.374C304.5 295.471 306.514 298.225 308.892 301.286C308.367 304.475 308.422 307.561 309.815 311.558C309.759 311.663 309.703 311.769 309.646 311.877C308.984 313.12 308.221 314.556 307.5 316.374C305.544 321.31 307.154 323.913 308.674 326.369C309.709 328.042 310.703 329.647 310.5 331.874C309.732 336.479 307.263 337.812 304.901 339.087C302.646 340.303 300.488 341.468 300 345.374C300 351.874 310 352.874 316 352.374C305.5 349.874 300.148 346.683 304.5 343.374C305.017 343.03 305.5 342.711 305.954 342.412C310.762 339.244 312.172 338.314 314 332.374C314.226 328.984 313.057 327.35 311.969 325.829C310.65 323.986 309.451 322.309 311 317.874C311.269 317.105 311.508 316.384 311.723 315.706C312.817 317.189 314.366 318.051 315.838 318.871C318.434 320.316 320.791 321.629 320 325.979C319.529 328.569 318.061 330.275 316.639 331.929C315.041 333.787 313.5 335.578 313.5 338.479C313.5 341.979 313.555 344.981 316 351.979C317.549 356.415 316.35 358.091 315.031 359.934C313.943 361.455 312.774 363.089 313 366.479C314.828 372.419 316.238 373.349 321.046 376.518C321.5 376.816 321.983 377.135 322.5 377.479C326.852 380.788 321.5 383.979 311 386.479C317 386.979 327 385.979 327 379.479C326.512 375.573 324.354 374.409 322.099 373.192C319.737 371.917 317.268 370.584 316.5 365.979C316.297 363.752 317.291 362.147 318.326 360.474C319.846 358.018 321.456 355.415 319.5 350.479C318.779 348.661 318.016 347.225 317.354 345.982C315.729 342.925 314.723 341.034 316.5 337.479C316.938 336.896 317.375 336.334 317.804 335.783C320.312 332.561 322.5 329.75 322.5 325.479C322.5 324.895 322.531 324.398 322.559 323.946C322.724 321.309 322.79 320.24 316 312.479C312.5 308.479 315.714 295.979 321.5 284.979C324.652 278.988 327.5 264.479 324 249.979C322.674 245.622 319.84 242.7 317.185 239.963C312.834 235.476 308.963 231.485 313 222.479C317.028 216.773 317.939 212.193 317.623 207.53C320.155 202.511 322.364 196.559 321 188.374C320.331 184.359 319.223 182.245 318.306 180.494C316.873 177.761 315.905 175.913 317.793 169.1C318.256 168.824 318.689 168.493 319.083 168.085C329.483 157.285 348.749 163.585 357.083 168.085C359.083 167.751 362.483 165.085 360.083 157.085C358.567 152.032 356.923 150.042 355.733 148.602C354.567 147.191 353.835 146.305 354.083 143.585C354.483 139.185 360.249 114.085 363.083 102.085L319.083 32.5845C314.583 27.5845 304.583 22.0845 296.583 23.0845C286.117 24.3928 275.583 23.0845 270.083 18.5845C262.749 16.5845 245.083 12.4794 239.083 13.9794C236.647 14.5884 234.563 14.5915 232.524 14.5944C228.706 14.6 225.04 14.6053 219.5 18.5845C217.629 21.7358 214.844 24.1741 211.006 27.5332ZM309.447 172.584C307.797 173.943 306.494 176.227 306 180.479C305.091 188.314 306.916 189.434 309.496 191.017C311.325 192.138 313.533 193.493 315.415 197.636C316.009 195.182 315.733 192.241 314 188.374C309.73 182.325 308.963 177.542 309.447 172.584ZM315.255 254.812C315.754 257.454 316.335 259.701 316.863 261.74C317.95 265.939 318.806 269.248 318.229 273.281C319.412 269.437 319.163 264.539 315.255 254.812ZM313.332 283.453C312.633 283.947 311.888 284.361 311.162 284.766C308.566 286.211 306.209 287.524 307 291.874C307.409 294.122 308.569 295.704 309.798 297.164C309.907 296.733 310.021 296.294 310.137 295.845C310.758 293.447 311.454 290.758 312 287.479C312.392 285.967 312.847 284.643 313.332 283.453Z" fill="black"/>
<path fill-rule="evenodd" clip-rule="evenodd" d="M190.5 47.9794C186.088 55.4508 184.46 61.814 182.944 67.7432C181.42 73.6989 180.009 79.2166 176 84.9794C172.523 91.4994 165.833 96.0709 159.997 100.059C152.407 105.247 146.26 109.448 150.5 115.666C156.5 124.466 146 135.333 140 139.666C126.8 146.066 125 156.666 127 163.666C121 172.066 112.167 171.5 108.5 170.166C108.12 171.877 107.299 173.641 106.208 175.379C107.515 177.743 108.973 180.413 110 184.374C110.546 187.653 111.242 190.341 111.863 192.74C113.514 199.119 114.634 203.446 111 211.374C109.955 213.653 107.999 214.743 106.162 215.766C103.566 217.211 101.209 218.524 102 222.874C102.471 225.464 103.939 227.17 105.361 228.823C106.959 230.682 108.5 232.473 108.5 235.374C108.5 238.874 108.445 241.876 106 248.874C104.451 253.31 105.65 254.986 106.969 256.829C108.057 258.35 109.226 259.984 109 263.374C107.172 269.314 105.762 270.244 100.954 273.412C100.501 273.711 100.017 274.03 99.5 274.374C95.1475 277.683 100.5 280.874 111 283.374C105 283.874 95 282.874 95 276.374C95.4883 272.468 97.6459 271.303 99.9007 270.087C102.263 268.812 104.733 267.479 105.5 262.874C105.703 260.647 104.709 259.042 103.674 257.369C102.154 254.913 100.544 252.31 102.5 247.374C103.221 245.556 103.984 244.12 104.646 242.877C106.271 239.82 107.277 237.929 105.5 234.374C105.062 233.791 104.625 233.229 104.197 232.679C101.689 229.457 99.5 226.645 99.5 222.374C99.5 221.79 99.469 221.293 99.4408 220.841C99.2763 218.204 99.2096 217.135 106 209.374C109.47 205.409 106.341 193.089 100.649 182.159C97.8704 184.949 94.9671 187.282 93 188.666C97.9005 199.692 97.6428 210.143 88.5 217.979C85 220.979 90.8296 248.939 91.5 251.979C91.8565 253.596 91.6925 254.766 91.5359 255.883C91.398 256.866 91.2659 257.809 91.5 258.979C92 261.479 92 264.479 91.5 265.979C91.4283 266.195 91.3051 266.492 91.1496 266.868C90.2214 269.109 88.1436 274.128 89 280.979C86.5 278.979 86.5 272.793 88 261.479C89.0649 253.448 83.5778 237.51 78.5159 228.94C74.3591 240.612 76.3937 244.29 79.1433 249.262C80.4668 251.655 81.9559 254.347 83 258.374C83.5465 261.653 84.2422 264.341 84.8629 266.74C86.5003 273.066 87.6154 277.375 84.0888 285.179C84.8311 286.47 85.7592 287.871 87 289.479C97.8 303.479 90 309.022 84.5 312.666C80.6043 315.248 81.9698 318.954 83.6301 323.461C84.1008 324.739 84.5951 326.081 85 327.479C82.7063 325.014 80.9584 322.833 79.6613 320.899C79.463 321.521 79.2433 322.178 79 322.874C77.4508 327.309 78.6502 328.986 79.9689 330.829C81.0569 332.35 82.226 333.984 82 337.374C80.1723 343.314 78.7621 344.244 73.9536 347.412C73.8292 347.494 73.7025 347.578 73.5735 347.663C73.3966 348.162 73.2056 348.663 73 349.166C72.5415 350.29 72.1497 351.382 71.82 352.445C73.5615 354.245 77.9169 355.926 84 357.374C80.0926 357.7 74.4887 357.389 71.0552 355.338C67.6693 370.941 78.1273 379.295 84.5 381.666C73.3 386.866 75.5 390.166 78 391.166C94.8 395.166 93 407.166 90 412.666C91.6 404.266 81.3334 398.5 76 396.666C64 389.466 71 383.666 76 381.666C68 374.866 66 368.833 66 366.666C69.6 339.466 64.5 330.666 61.5 329.666C38 308.166 51 288.166 55.5 283.166C59.1 279.166 57 268.5 55.5 263.666L52.5 243.166C52.6126 240.014 49.5814 243.105 46.6954 246.048C45.3084 247.463 43.9549 248.843 43 249.479C41.5 250.479 40.5 247.633 40.5 243.479C40.5 242.479 38 239.479 37 239.479C31.5917 239.479 32 237.979 34.5 234.979C36.0057 233.173 48 214.793 43.5 216.979C42.5959 217.419 41.8735 217.803 41.3002 218.107C40.2056 218.689 39.655 218.982 39.4225 218.819C39.1873 218.655 39.278 218.024 39.4604 216.755C39.4732 216.667 39.4864 216.575 39.5 216.479C39.9823 213.103 41.3067 213.15 42.1008 213.178C42.6644 213.198 42.9609 213.208 42.5 211.979C41.8842 210.337 42.2796 210.549 42.6485 210.747C43.178 211.03 43.6525 211.285 41 205.979C38.8512 201.682 39.2676 201.624 40.6967 201.425C41.6619 201.291 43.0891 201.092 44.5 199.479C45.993 198.65 45.7248 196.169 45.357 192.768C44.6164 185.918 43.4719 175.332 55.5 166.979C66.7808 172.62 71.5993 152.66 72.9347 137.766L71 136.979L73.2803 132.419C73.4268 128.59 73.3086 125.523 73 123.979C77.4 95.9794 80.3334 79.1461 84.5 81.4794C88.3059 86.1808 88.0082 77.5796 87.7095 68.9476C87.4744 62.1565 87.2388 55.3464 89 54.9794C101.778 56.7062 105.785 53.9754 107.714 52.6607C108.019 52.4527 108.272 52.2801 108.5 52.1663C123.852 40.4697 129.851 39.7286 132.554 39.3947C133.548 39.2719 134.097 39.2042 134.5 38.6663C135.7 37.0663 139 31.9996 140.5 29.6663C143.3 28.4663 148 29.1663 150 29.6663C152.8 24.0663 157.833 22.6663 160 22.6663C164 23.8663 169.667 23.8329 172 23.6663C176.8 18.8663 188.333 18.6663 193.5 19.1663C196.693 19.4058 199.514 19.5895 201.98 19.75C211.869 20.394 216.034 20.6652 215.5 22.6663C207.833 28.1663 196 38.6663 190.5 47.9794ZM69.9837 243.412C68.9399 241.548 68.1207 239.26 68 236.666C62.4 245.866 65.6667 254.833 68 258.166C75.8747 267.616 78.6626 272.837 80.417 276.939C80.0802 271.233 77.3634 263.219 73.5 255.874C72.0839 253.182 70.729 248.77 69.9837 243.412ZM78.013 284.511C77.1405 282.994 76.4985 282.756 75.739 282.474C75.507 282.388 75.264 282.298 75 282.166C73.5808 291.036 65.3635 300.41 61.2469 305.106C59.5623 307.028 58.5644 308.166 59 308.166C66.1339 313.071 78.0389 326.245 74.8603 342.939C76.5066 341.816 77.9462 340.197 78.5 336.874C78.7025 334.647 77.7094 333.042 76.6745 331.369C75.1543 328.913 73.544 326.31 75.5 321.374C76.1786 319.662 76.8953 318.289 77.5286 317.097C75.6523 312.796 76.5374 310.071 78.3407 308.163C77.9562 307.654 77.5726 307.162 77.1962 306.678C74.6885 303.456 72.5 300.645 72.5 296.374C72.5 295.79 72.469 295.293 72.4408 294.841C72.2847 292.339 72.2166 291.248 78.013 284.511ZM80.8016 306.234C81.6089 305.737 82.4407 305.308 83.2108 304.911C85.0271 303.973 86.5 303.213 86.5 302.166C86.5 299.81 84.7694 297.189 83.0378 294.566C81.8543 292.774 80.6704 290.981 80.0382 289.271C79.746 289.441 79.4526 289.604 79.1623 289.766C76.5664 291.211 74.209 292.524 75 296.874C75.4707 299.464 76.9388 301.17 78.3608 302.823C79.2916 303.906 80.2028 304.965 80.8016 306.234Z" fill="black"/>
<path d="M318 33.9794C322 22.1461 335.2 -1.12059 356 0.479408C365.5 -0.520583 385.8 -0.620565 391 6.97943C397.5 16.4794 392 17.9795 406 25.9794C417.167 25.4794 437.6 31.5794 430 59.9794C437 64.4794 449.2 76.7794 442 89.9794C445.333 100.979 448.8 127.179 436 143.979C428.333 153.646 416.4 175.079 430 183.479C433.5 189.146 436.7 209.579 421.5 245.979C418.333 247.146 412 250.379 412 253.979C415.333 256.479 421.5 261.979 419.5 263.979C413.333 265.146 402.3 268.979 407.5 274.979C405.833 274.646 403 271.979 405 263.979C406.667 262.979 410.4 260.979 412 260.979C414 260.979 401 255.479 405 252.479C409 249.479 405 245.979 414.5 241.479C415 238.813 414.9 233.879 410.5 235.479C405 237.479 401.5 260.979 399 260.979C396.5 260.979 390 268.979 385 269.479C380 269.979 394 277.979 394.5 276.479C395 274.979 399 282.479 394.5 288.479C401 291.313 409.3 298.879 390.5 306.479C396.167 302.479 404.1 293.479 390.5 289.479C392.333 285.146 394.9 276.879 390.5 278.479L382.5 274.979C385.167 277.646 387.4 285.079 375 293.479C370.667 294.313 362.2 298.079 363 306.479C360.833 304.313 356.9 298.479 358.5 292.479C367.333 290.813 383 285.279 375 276.479C371.833 277.979 366.7 281.379 371.5 282.979C369.167 283.979 364.9 283.779 366.5 274.979C364.245 278.437 361.176 285.014 365 286.269C368 286.339 372.5 286.479 366.5 286.479C365.833 287.883 362 290.247 352 288.479C346.667 287.813 337.4 288.479 343 296.479C337.5 293.979 332.9 286.179 358.5 274.979C351.199 274.146 336.878 274.579 338 282.979C335.333 278.479 331.6 269.479 338 269.479C333.167 269.146 325.6 275.579 334 303.979C334 307.479 335.8 313.879 343 311.479C339.167 314.813 329.9 317.179 323.5 299.979C320.667 295.146 316 284.979 320 282.979C325 280.479 322 255.479 334 253.979C343.6 252.779 338 252.479 334 252.479C335.333 247.146 338 234.979 338 228.979C340.667 225.646 346.6 216.579 349 206.979C352.667 203.146 359.2 193.079 356 183.479C352 171.479 354 164.979 358.5 160.479C362.1 156.879 354.333 147.979 350 143.979C348.833 141.813 347.7 135.879 352.5 129.479C355 123.646 358.9 111.379 354.5 108.979C352.167 108.813 347.3 106.979 346.5 100.979C345.5 93.4794 349 76.4794 341 74.9794C334.5 72.4794 321.7 64.3794 322.5 51.9794C319.867 48.6461 315.281 40.3794 318 33.9794Z" fill="#3A0067"/>
<path d="M31 101.709C24.6 82.1086 38.6667 73.542 46.5 71.7086C43.7 43.3086 56 36.8822 63.5 43.2087C71 49.5351 89.5 40.2086 93.5 47.0352C97.5 53.8617 92 51.8617 95.5 59.5352C99 67.2086 95 70.542 93.5 74.2086C86.3 78.2087 87.5 87.8753 89 92.2086C88.2 98.6087 81.6667 104.875 78.5 107.209C70.9 119.209 75.3333 133.542 78.5 139.209C66.5 174.709 60.5 169.209 60.5 169.209C43 177.709 44.5 187.709 50 193.709C55.5 199.709 57.5 217.522 52.5 220.522C48.5 222.922 45.5 239.98 44.5 248.209C37.7 263.809 26 263.042 21 260.709C33.5 264.209 40.5 242.709 35 242.709C29.5917 242.709 28 239.209 30.5 236.209C32.0057 234.402 45.5 218.335 41 220.522C36.5 222.709 31.5 232.022 32 228.522C32.8246 222.749 37.1104 220.483 36 217.522C34.5 213.522 31 213.709 26.5 204.709C22.9 197.509 20.5 210.209 24 217.209C25 220.709 17 218.709 15.5 228.709C13.9227 243.109 4.50945 241.709 0 239.209C4.5 240.709 12.5 240.709 8.5 228.709C4.5 216.709 10 215.209 15.5 213.209C9.5 205.709 9.16667 178.709 15.5 177.709C-4.5 157.309 9.83333 142.209 19.5 137.209C-8.1 96.8086 15.6667 96.7086 31 101.709Z" fill="#3A0067"/>
</svg>
